<svg xmlns="http://www.w3.org/2000/svg" width="1600" height="900" viewBox="0 0 1600 900">
  <defs>
    <linearGradient id="g" x1="0" x2="1" y1="0" y2="1">
      <stop offset="0" stop-color="#0B0F19"/>
      <stop offset="1" stop-color="#0F172A"/>
    </linearGradient>
  </defs>
  <rect width="1600" height="900" fill="url(#g)"/>
  <g stroke="#60A5FA" stroke-width="1" fill="none" opacity="0.5">
    <path d="M0,700 C200,640 400,760 600,700 C800,640 1000,760 1200,700 C1400,640 1600,760 1600,700" />
    <path d="M0,600 C200,540 400,660 600,600 C800,540 1000,660 1200,600 C1400,540 1600,660 1600,600" />
    <path d="M0,500 C200,440 400,560 600,500 C800,440 1000,560 1200,500 C1400,440 1600,560 1600,500" />
  </g>
</svg>
