<svg xmlns="http://www.w3.org/2000/svg" width="1600" height="900" viewBox="0 0 1600 900">
  <defs>
    <linearGradient id="meshGrad" x1="0" y1="0" x2="1" y2="1">
      <stop offset="0%" stop-color="#dbeafe" stop-opacity="0.6"/>
      <stop offset="100%" stop-color="#f0f9ff" stop-opacity="0.2"/>
    </linearGradient>
  </defs>
  <g stroke="url(#meshGrad)" stroke-width="1" fill="none">
    <!-- geometric grid lines -->
    <path d="M0 100 L1600 100 M0 300 L1600 300 M0 500 L1600 500 M0 700 L1600 700" opacity="0.3"/>
    <path d="M200 0 L200 900 M600 0 L600 900 M1000 0 L1000 900 M1400 0 L1400 900" opacity="0.3"/>
    <!-- organic curves -->
    <path d="M0 450 C300 550 500 350 800 450 C1100 550 1300 350 1600 450" opacity="0.5"/>
    <path d="M0 250 C400 350 600 150 1000 250 C1200 300 1400 100 1600 200" opacity="0.4"/>
    <path d="M0 650 C400 750 600 550 1000 650 C1200 700 1400 500 1600 600" opacity="0.4"/>
  </g>
</svg>
