<svg xmlns="http://www.w3.org/2000/svg" width="1600" height="900" viewBox="0 0 1600 900">
  <defs>
    <linearGradient id="fiberGrad" x1="0" y1="0" x2="1" y2="0">
      <stop offset="0%" stop-color="#3b82f6"/>
      <stop offset="100%" stop-color="#0ea5e9"/>
    </linearGradient>
    <filter id="glow" x="-50%" y="-50%" width="200%" height="200%">
      <feGaussianBlur stdDeviation="4" result="coloredBlur"/>
      <feMerge>
        <feMergeNode in="coloredBlur"/>
        <feMergeNode in="SourceGraphic"/>
      </feMerge>
    </filter>
  </defs>
  <g stroke="url(#fiberGrad)" stroke-width="4" fill="none" filter="url(#glow)" opacity="0.9">
    <path d="M0 700 C200 600 400 800 600 700 S1000 800 1200 700 S1400 800 1600 720"/>
    <path d="M0 600 C200 500 400 700 600 600 S1000 700 1200 600 S1400 700 1600 620" opacity="0.7"/>
    <path d="M0 500 C200 400 400 600 600 500 S1000 600 1200 500 S1400 600 1600 520" opacity="0.6"/>
    <path d="M0 400 C250 300 450 500 700 400 S1050 500 1300 400 S1550 500 1600 420" opacity="0.5"/>
    <path d="M0 300 C250 200 450 400 700 300 S1050 400 1300 300 S1550 400 1600 320" opacity="0.4"/>
  </g>
</svg>
